<?xml version="1.0" encoding="UTF-8"?>
<svg version="1.1" xmlns="http://www.w3.org/2000/svg" width="512" height="512">
<path d="M0 0 C1.51427582 0.00081573 1.51427582 0.00081573 3.05914307 0.00164795 C19.57458953 0.04242844 35.47683935 0.97005679 51.6875 4.375 C52.70279785 4.58398926 53.7180957 4.79297852 54.76416016 5.00830078 C92.00040584 12.92018809 126.62809467 29.08993998 156.6875 52.375 C157.58597656 53.06078125 158.48445313 53.7465625 159.41015625 54.453125 C174.96302342 66.57992476 189.59791145 80.79632064 201.6875 96.375 C202.450625 97.30957031 203.21375 98.24414062 204 99.20703125 C231.04371972 132.96834161 248.23470336 174.74956337 254.6875 217.375 C254.86482666 218.49382568 255.04215332 219.61265137 255.22485352 220.76538086 C256.90626341 232.48735947 257.04484341 244.10998976 257 255.9375 C256.99784485 256.95790375 256.9956897 257.9783075 256.99346924 259.02963257 C256.94383352 273.65710524 256.69669712 288.00763838 253.6875 302.375 C253.38948486 303.83728027 253.38948486 303.83728027 253.08544922 305.32910156 C242.96482806 353.7109774 221.0483123 397.69928269 186.6875 433.375 C186.05537598 434.03435547 185.42325195 434.69371094 184.77197266 435.37304688 C175.62752521 444.86130305 166.33015991 453.6012044 155.6875 461.375 C154.53644983 462.23306152 153.38540823 463.09113451 152.234375 463.94921875 C144.04474019 469.98677396 135.54211724 475.36957302 126.6875 480.375 C125.98028809 480.7771875 125.27307617 481.179375 124.54443359 481.59375 C101.40904164 494.6191741 76.23787591 503.36801461 50.25 508.6875 C49.53110596 508.83485596 48.81221191 508.98221191 48.0715332 509.1340332 C33.39589502 511.92340125 18.87081162 512.72392619 3.96020508 512.69067383 C1.02061513 512.6875221 -1.9179558 512.71104926 -4.85742188 512.73632812 C-18.23056192 512.78098737 -31.12666711 511.57551542 -44.3125 509.375 C-46.01805054 509.09281616 -46.01805054 509.09281616 -47.75805664 508.80493164 C-91.02552759 501.03294532 -132.07543216 481.04595309 -165.3125 452.375 C-166.05757813 451.74078125 -166.80265625 451.1065625 -167.5703125 450.453125 C-181.07529833 438.64198485 -193.74668743 425.89139772 -204.3125 411.375 C-205.16899066 410.22505169 -206.02576433 409.07531411 -206.8828125 407.92578125 C-212.92284209 399.73565742 -218.30617614 391.23120382 -223.3125 382.375 C-223.7146875 381.66778809 -224.116875 380.96057617 -224.53125 380.23193359 C-237.5566741 357.09654164 -246.30551461 331.92537591 -251.625 305.9375 C-251.77235596 305.21860596 -251.91971191 304.49971191 -252.0715332 303.7590332 C-255.04539088 288.11274391 -255.68550362 272.63931954 -255.625 256.75 C-255.62284485 255.73209381 -255.6206897 254.71418762 -255.61846924 253.66543579 C-255.56879854 239.05636477 -255.31790191 224.72424147 -252.3125 210.375 C-252.11382324 209.40014648 -251.91514648 208.42529297 -251.71044922 207.42089844 C-241.58982806 159.0390226 -219.6733123 115.05071731 -185.3125 79.375 C-184.68037598 78.71564453 -184.04825195 78.05628906 -183.39697266 77.37695312 C-174.25252521 67.88869695 -164.95515991 59.1487956 -154.3125 51.375 C-153.16144983 50.51693848 -152.01040823 49.65886549 -150.859375 48.80078125 C-142.66974019 42.76322604 -134.16711724 37.38042698 -125.3125 32.375 C-124.60528809 31.9728125 -123.89807617 31.570625 -123.16943359 31.15625 C-100.03404164 18.1308259 -74.86287591 9.38198539 -48.875 4.0625 C-48.15610596 3.91514404 -47.43721191 3.76778809 -46.6965332 3.6159668 C-31.16987908 0.66484793 -15.76936592 -0.03207988 0 0 Z M-99.3125 68.375 C-100.29992187 68.88675781 -101.28734375 69.39851563 -102.3046875 69.92578125 C-119.47713258 78.94982817 -134.38053161 91.01321687 -148.3125 104.375 C-149.26125 105.27089844 -150.21 106.16679688 -151.1875 107.08984375 C-190.37793126 144.99990581 -211.33397536 199.73638562 -212.66821289 253.71191406 C-212.91995631 288.47162543 -205.07352377 323.95773268 -188.31738281 354.53320312 C-187.28741617 356.42097483 -186.29537748 358.32574135 -185.3046875 360.234375 C-176.52452505 376.82758568 -165.00670951 391.43164523 -151.87304688 404.78369141 C-150.46616158 406.21830942 -149.08308974 407.67618721 -147.703125 409.13671875 C-141.13956508 415.96839795 -133.89556702 421.73248163 -126.3125 427.375 C-125.30703125 428.12523437 -124.3015625 428.87546875 -123.265625 429.6484375 C-77.47868329 462.50590603 -21.16896247 475.2359939 34.41894531 466.91845703 C90.32583438 457.62291363 140.45654542 426.49236195 173.6875 380.625 C207.89342131 332.32193384 219.99968025 274.56761189 210.19970703 216.48388672 C206.33490767 195.42982603 198.90553354 175.15526634 188.6875 156.375 C188.17574219 155.38757813 187.66398437 154.40015625 187.13671875 153.3828125 C178.11267183 136.21036742 166.04928313 121.30696839 152.6875 107.375 C151.79160156 106.42625 150.89570313 105.4775 149.97265625 104.5 C117.05883704 70.474554 71.27036499 50.20552987 24.6875 44.375 C23.82253906 44.26285156 22.95757812 44.15070312 22.06640625 44.03515625 C-19.55225203 39.62563222 -62.62843262 48.41580325 -99.3125 68.375 Z " fill=currentColor transform="translate(255.3125,-0.375)"/>
<path d="M0 0 C6.02574319 6.02574319 7.37003168 12.18074617 7.39717102 20.46598816 C7.40084771 21.19401164 7.4045244 21.92203512 7.4083125 22.67211992 C7.41932827 25.11239375 7.4231896 27.55262497 7.42700195 29.99291992 C7.43326821 31.74243301 7.43991516 33.49194477 7.44691467 35.24145508 C7.46793864 40.98778357 7.47831569 46.73411228 7.48828125 52.48046875 C7.49232946 54.46019314 7.49644641 56.43991739 7.50063133 58.41964149 C7.51967955 67.7213424 7.53391121 77.02303538 7.5422433 86.32475203 C7.55201393 97.05468121 7.5783305 107.784404 7.61874419 118.51426047 C7.64892453 126.81250405 7.66371401 135.11068853 7.66702431 143.40898591 C7.66937265 148.36295724 7.678305 153.31670799 7.70348549 158.27062035 C7.72680468 162.93363623 7.73098398 167.59628688 7.72072411 172.25934601 C7.72022957 173.96650471 7.72652578 175.67368163 7.74028015 177.38078499 C7.88493396 196.40566754 7.88493396 196.40566754 1.47058582 203.10980511 C-4.80501935 208.86423484 -9.77174256 209.76114887 -18.26171875 209.62890625 C-24.61513022 208.93878205 -28.41524406 205.91047551 -32.625 201.3125 C-36.3530773 195.93968271 -37.0005229 191.24950085 -37.01069641 184.78677368 C-37.01452196 184.05633579 -37.01834751 183.32589789 -37.02228898 182.57332551 C-37.03257024 180.13686289 -37.02863616 177.70063807 -37.0246582 175.26416016 C-37.0290074 173.51272871 -37.03419124 171.76129916 -37.04014587 170.00987244 C-37.05352529 165.25982059 -37.05411568 160.50984837 -37.05158257 155.75978136 C-37.05051207 151.79115865 -37.0553983 147.822552 -37.060188 143.85393274 C-37.07127968 134.48919813 -37.07172259 125.12450363 -37.06567383 115.75976562 C-37.05963447 106.10651801 -37.07194488 96.45341617 -37.0932439 86.80019343 C-37.11087129 78.50531449 -37.11685943 70.2104819 -37.11360615 61.91558492 C-37.11179486 56.96452265 -37.11441413 52.01356435 -37.12832069 47.06251907 C-37.14091278 42.4052558 -37.13894185 37.74821941 -37.12590981 33.09095955 C-37.12354743 31.38500326 -37.12626655 29.67903093 -37.13453293 27.97309303 C-37.14503118 25.63753205 -37.13687569 23.30272803 -37.1242218 20.9671936 C-37.12438954 19.66235331 -37.12455729 18.35751301 -37.12473011 17.0131321 C-36.48156997 10.55435946 -34.39628571 4.89628571 -29.75 0.25 C-19.91568315 -6.55130324 -9.93984913 -6.32535854 0 0 Z " fill=currentColor transform="translate(270.75,110.75)"/>
<path d="M0 0 C4.90708223 4.90708223 7.04375389 10.15630831 7.5 17 C7.40116071 22.89741081 5.73006929 27.48991761 1.9375 32 C-4.26427746 37.19218578 -8.47955831 39.58969001 -16.59765625 39.46875 C-22.45103207 38.87385155 -27.59930808 36.40069192 -31.75 32.25 C-35.98531064 26.12596975 -37.50488863 20.67756487 -36.75 13.25 C-35.33432013 7.59768993 -33.00202797 2.49906607 -28.078125 -0.90625 C-18.51366643 -6.62857564 -9.23787062 -5.87864494 0 0 Z " fill=currentColor transform="translate(270.75,366.75)"/>
</svg>
