<?xml version="1.0" encoding="UTF-8"?>
<svg version="1.1" xmlns="http://www.w3.org/2000/svg" width="512" height="512">
<path d="M0 0 C0.63357422 0.43425293 1.26714844 0.86850586 1.91992188 1.31591797 C14.43810781 9.91714168 26.11650438 19.11640166 37.23828125 29.4609375 C39.40969255 31.45728452 41.60866006 33.36541029 43.875 35.25 C53.94394605 43.9946379 62.81583715 54.51660746 71 65 C71.48823242 65.62100586 71.97646484 66.24201172 72.47949219 66.88183594 C83.48012713 80.90513774 93.54851802 95.29085525 102 111 C102.47179687 111.85207031 102.94359375 112.70414063 103.4296875 113.58203125 C114.79048606 135.98609053 115.71392861 165.37557196 108.671875 189.17578125 C104.21331252 202.64140302 97.4652297 214.73389124 89.25292969 226.24121094 C88.0180551 227.97465531 86.80776181 229.72307865 85.6015625 231.4765625 C76.09235025 245.18567682 65.38303939 257.82394771 54 270 C53.04851068 271.05133494 52.09932764 272.10476126 51.15234375 273.16015625 C46.75984154 278.04732318 42.37658409 282.82461431 37.32421875 287.046875 C35.43881136 288.63125096 33.60069145 290.2449453 31.76953125 291.890625 C-20.1261697 338.25283914 -88.67568221 361.29071129 -158 358 C-203.91957822 355.14994609 -249.70893656 342.08897789 -288 316 C-288.94311035 315.36022217 -288.94311035 315.36022217 -289.90527344 314.70751953 C-299.76197191 307.98955915 -309.05032511 300.8812446 -318 293 C-318.7115625 292.38769531 -319.423125 291.77539062 -320.15625 291.14453125 C-322.12194012 289.44872072 -324.06347427 287.72904083 -326 286 C-327.36898437 284.78763672 -327.36898437 284.78763672 -328.765625 283.55078125 C-335.98287964 277.09607789 -342.62091102 270.28053198 -349 263 C-349.67047363 262.23864746 -349.67047363 262.23864746 -350.35449219 261.46191406 C-368.521828 240.73100891 -387.55482841 216.57745176 -396 190 C-396.391875 188.8346875 -396.78375 187.669375 -397.1875 186.46875 C-405.07213772 160.46345377 -400.73833509 131.24622523 -388.453125 107.43359375 C-385.11912628 101.26569611 -381.32309178 95.46202157 -377.25292969 89.75878906 C-376.0180551 88.02534469 -374.80776181 86.27692135 -373.6015625 84.5234375 C-364.8196699 71.86287567 -355.06069063 59.97591131 -344.5390625 48.7265625 C-342.18023547 46.19354517 -339.9010756 43.60714115 -337.625 41 C-329.01286891 31.41900417 -319.16521636 22.88706285 -309 15 C-308.03876221 14.24662354 -308.03876221 14.24662354 -307.05810547 13.47802734 C-274.69156124 -11.71744158 -238.01306434 -28.30758279 -198 -37 C-197.23284668 -37.16725586 -196.46569336 -37.33451172 -195.67529297 -37.50683594 C-130.52761666 -51.27981592 -55.05841708 -38.06412913 0 0 Z M-316 82 C-319.1968821 85.51797069 -322.12731212 89.21379737 -325 93 C-325.76828125 93.96292969 -326.5365625 94.92585938 -327.328125 95.91796875 C-342.96307552 115.59344694 -359.37192052 137.57002852 -357 164 C-352.44028842 201.72937821 -313.51586037 241.25382514 -284.8671875 263.82421875 C-283.92101562 264.54222656 -282.97484375 265.26023437 -282 266 C-281.43313477 266.4326416 -280.86626953 266.8652832 -280.28222656 267.31103516 C-248.08277516 291.78159113 -211.29708311 308.10106842 -171 313 C-170.27377441 313.0942627 -169.54754883 313.18852539 -168.79931641 313.28564453 C-110.51630702 320.08877718 -52.76693869 302.51909673 -6.89208984 266.50146484 C9.19387141 253.73647623 24.56515417 239.3891268 37 223 C37.76828125 222.03707031 38.5365625 221.07414063 39.328125 220.08203125 C54.96307552 200.40655306 71.37192052 178.42997148 69 152 C66.18567113 128.71280814 50.38733443 109.59806725 36 92 C35.34257813 91.18595703 35.34257813 91.18595703 34.671875 90.35546875 C21.59944423 74.24562024 6.83576465 59.16442575 -10 47 C-11.14774758 46.14665608 -12.29487362 45.29247561 -13.44140625 44.4375 C-51.27809549 16.50398233 -96.60563021 1.45132965 -143.625 1.6875 C-144.79621399 1.69073273 -144.79621399 1.69073273 -145.99108887 1.69403076 C-213.6568269 1.99191291 -270.37366703 33.80580819 -316 82 Z " fill="#FFFFFF" transform="translate(400,98)"/>
<path d="M0 0 C0.82371094 0.60328125 1.64742187 1.2065625 2.49609375 1.828125 C23.32701024 17.81690957 36.43990251 38.82197399 43 64 C43.36931641 65.39992187 43.36931641 65.39992187 43.74609375 66.828125 C49.77478997 95.26694028 42.57955062 124.97197984 27 149 C10.68356746 171.52507507 -11.31800487 186.04804557 -38 193 C-39.39992188 193.36931641 -39.39992188 193.36931641 -40.828125 193.74609375 C-69.26694028 199.77478997 -98.97197984 192.57955062 -123 177 C-145.52507507 160.68356746 -160.04804557 138.68199513 -167 112 C-167.24621094 111.06671875 -167.49242187 110.1334375 -167.74609375 109.171875 C-173.77478997 80.73305972 -166.57955062 51.02802016 -151 27 C-134.68356746 4.47492493 -112.68199513 -10.04804557 -86 -17 C-85.06671875 -17.24621094 -84.1334375 -17.49242187 -83.171875 -17.74609375 C-54.99968922 -23.71826764 -23.16279891 -17.02371562 0 0 Z M-104 40 C-104.71671875 40.60457031 -105.4334375 41.20914063 -106.171875 41.83203125 C-116.37854791 51.22770883 -124.13712941 65.39349789 -125.17700195 79.38085938 C-125.46426141 90.92617192 -125.66784883 101.24099106 -121 112 C-120.63777344 112.87527344 -120.27554688 113.75054687 -119.90234375 114.65234375 C-112.86685408 130.13042103 -99.51841767 141.83848774 -83.9375 148.25 C-66.91331734 153.96474679 -48.88616431 152.80499822 -32.75927734 144.93896484 C-17.29110536 136.68326273 -6.47968063 122.87655607 -0.76171875 106.54296875 C3.25601008 93.12993559 2.55873161 76.81242073 -3 64 C-3.54333984 62.68708984 -3.54333984 62.68708984 -4.09765625 61.34765625 C-10.67316689 46.88153285 -22.77390122 35.76125804 -37 29 C-60.51055707 20.2333516 -84.79508021 23.73776953 -104 40 Z " fill="#FFFFFF" transform="translate(318,168)"/>
</svg>
