<?xml version="1.0" encoding="UTF-8"?>
<svg version="1.1" xmlns="http://www.w3.org/2000/svg" width="512" height="512">
<path d="M0 0 C4.05444869 0.02278923 8.10784732 0.00925958 12.16226006 -0.01376629 C43.0787574 -0.16288784 70.29333791 3.76665452 94.86914062 24.52148438 C95.68125 25.19953125 96.49335938 25.87757812 97.33007812 26.57617188 C113.59298406 40.63733055 126.33938444 60.30315277 130.86914062 81.52148438 C130.86914062 82.84148437 130.86914062 84.16148438 130.86914062 85.52148438 C131.75339722 85.51260193 132.63765381 85.50371948 133.54870605 85.49456787 C141.90493024 85.41423246 150.26102366 85.35342391 158.61754608 85.31423569 C162.91316783 85.29341085 167.20846898 85.26518743 171.50390625 85.21972656 C175.65364203 85.1760854 179.80307053 85.15230892 183.95301819 85.1419754 C185.53179253 85.13461664 187.11055113 85.12024686 188.68919373 85.09856415 C204.09940801 84.8954303 204.09940801 84.8954303 210.86914062 89.52148438 C216.23744589 94.77049397 218.49094051 100.11768338 219.30664062 107.45898438 C219.04142051 113.08386107 217.00164779 118.20096034 213.18554688 122.35351562 C208.04024095 126.90130215 204.34776209 128.78038093 197.35351562 128.71679688 C195.47792969 128.70712891 195.47792969 128.70712891 193.56445312 128.69726562 C192.2625 128.68050781 190.96054687 128.66375 189.61914062 128.64648438 C188.30171875 128.63746094 186.98429687 128.6284375 185.62695312 128.61914062 C182.37416601 128.5955697 179.12174474 128.5626646 175.86914062 128.52148438 C175.87065951 129.1254052 175.87217839 129.72932602 175.8737433 130.35154748 C175.96343459 166.21795977 176.031977 202.08435262 176.07340194 237.9508539 C176.07840422 242.26622701 176.08358156 246.58159989 176.08886719 250.89697266 C176.08991643 251.75601412 176.09096567 252.61505558 176.09204671 253.5001286 C176.10940839 267.37351835 176.14092248 281.24684119 176.17775181 295.12019137 C176.21527959 309.37652021 176.23740138 323.63281423 176.2454946 337.88919044 C176.25095795 346.67212195 176.268155 355.45486424 176.30080649 364.23773745 C176.3221009 370.27668772 176.32830729 376.31554148 176.32314613 382.35452649 C176.32060729 385.82844069 176.32424149 389.30202643 176.34596252 392.77588081 C176.51524684 424.56428874 170.99148618 450.09415682 150.86914062 475.52148438 C150.36640625 476.18019531 149.86367188 476.83890625 149.34570312 477.51757812 C144.94559481 483.02407205 139.41862622 487.22906458 133.86914062 491.52148438 C132.74765625 492.41867187 132.74765625 492.41867187 131.60351562 493.33398438 C116.02161164 505.10213563 95.75640361 512.6102073 76.20593262 512.66192627 C74.25510269 512.67049149 74.25510269 512.67049149 72.26486206 512.67922974 C70.8406373 512.68047483 69.41641244 512.68159998 67.9921875 512.68261719 C66.47856527 512.6872513 64.9649442 512.69227675 63.45132446 512.69766235 C59.35168943 512.71073482 55.25207074 512.71722169 51.15241814 512.72167301 C48.58450479 512.72461325 46.01659582 512.72871991 43.44868469 512.73317719 C35.3953216 512.74684113 27.3419686 512.75651209 19.28859472 512.76037908 C10.02808757 512.76485143 0.76772864 512.78236564 -8.49273348 512.81137967 C-15.67351975 512.83308758 -22.8542646 512.84308826 -30.03508329 512.84442019 C-34.3128808 512.84546211 -38.59053878 512.8512373 -42.86830139 512.86923981 C-46.90016502 512.88587796 -50.93178663 512.88780084 -54.96367264 512.8791008 C-56.431262 512.87833865 -57.89886523 512.88256245 -59.36642075 512.89255905 C-85.78322706 513.0617317 -110.3115376 503.96926337 -130.13085938 486.52148438 C-131.16210938 485.73773438 -132.19335938 484.95398438 -133.25585938 484.14648438 C-151.55816216 467.43568618 -163.78954591 442.12089689 -166.13085938 417.52148438 C-166.27153437 413.58340166 -166.2615091 409.64838411 -166.25111389 405.70814514 C-166.25196832 404.52201754 -166.25282274 403.33588993 -166.25370306 402.11381906 C-166.25506222 398.83456487 -166.25194896 395.55535049 -166.246925 392.27610099 C-166.24259738 388.73495034 -166.24406856 385.19380148 -166.24482727 381.65264893 C-166.24535104 375.52167893 -166.24221958 369.39071959 -166.23658943 363.25975227 C-166.22845454 354.39545668 -166.22585717 345.53116623 -166.22460144 336.66686731 C-166.22241405 322.28433765 -166.21576244 307.90181368 -166.20629883 293.51928711 C-166.19711662 279.54988636 -166.19003974 265.58048715 -166.18579102 251.61108398 C-166.18552829 250.74968133 -166.18526557 249.88827867 -166.18499488 249.0007729 C-166.18368982 244.67927076 -166.18242612 240.35776861 -166.18118298 236.03626645 C-166.17082011 200.19800175 -166.15321029 164.3597435 -166.13085938 128.52148438 C-166.93716797 128.54766846 -167.74347656 128.57385254 -168.57421875 128.60083008 C-172.2595641 128.70534698 -175.94459675 128.76998676 -179.63085938 128.83398438 C-181.53351563 128.89682617 -181.53351563 128.89682617 -183.47460938 128.9609375 C-192.13263743 129.07367224 -197.35776946 128.08765289 -203.64013672 122.07763672 C-208.02277747 117.28446615 -209.64995456 112.19605412 -209.43945312 105.73242188 C-208.44327735 98.59526377 -205.62770856 93.16166099 -200.00976562 88.67773438 C-195.31835065 85.79070977 -191.43793882 85.2752249 -185.95385742 85.29443359 C-185.25087021 85.29414154 -184.547883 85.29384949 -183.82359314 85.29354858 C-181.51312675 85.29493561 -179.20298778 85.31046688 -176.89257812 85.32617188 C-175.2854683 85.32990424 -173.6783562 85.33275016 -172.07124329 85.33474731 C-167.85112168 85.34236616 -163.63113877 85.36199955 -159.41107178 85.38415527 C-155.10088985 85.40465144 -150.79068541 85.41375709 -146.48046875 85.42382812 C-138.03053547 85.44524716 -129.5807147 85.4793619 -121.13085938 85.52148438 C-120.99059326 84.28180908 -120.85032715 83.04213379 -120.70581055 81.76489258 C-120.34970945 78.92751805 -119.93363369 76.31769853 -118.93164062 73.62695312 C-118.69525879 72.98717529 -118.45887695 72.34739746 -118.21533203 71.68823242 C-117.96058105 71.03508057 -117.70583008 70.38192871 -117.44335938 69.70898438 C-117.17571777 69.01393799 -116.90807617 68.3188916 -116.63232422 67.6027832 C-106.32897997 41.4883023 -85.71498335 20.03859357 -60.04174805 8.67260742 C-59.00304565 8.22655151 -59.00304565 8.22655151 -57.94335938 7.77148438 C-57.33403564 7.50182861 -56.72471191 7.23217285 -56.09692383 6.9543457 C-53.80363222 6.02097918 -51.4939754 5.26225719 -49.13085938 4.52148438 C-48.04337402 4.16699219 -46.95588867 3.8125 -45.83544922 3.44726562 C-30.97258767 -0.84770217 -15.32333804 -0.08698177 0 0 Z M-56.13085938 57.52148438 C-56.84371094 58.06804688 -57.5565625 58.61460938 -58.29101562 59.17773438 C-66.53760579 65.91483308 -71.89037568 74.84849162 -76.13085938 84.52148438 C-76.13085938 84.85148437 -76.13085938 85.18148437 -76.13085938 85.52148438 C-22.67085937 85.52148438 30.78914063 85.52148438 85.86914062 85.52148438 C77.90945567 67.61219323 67.18132857 55.26785315 48.86914062 47.52148438 C39.16629054 44.03020398 30.10396852 43.35787616 19.86523438 43.31835938 C18.70975601 43.3126593 17.55427765 43.30695923 16.36378479 43.30108643 C13.92213854 43.29166323 11.48047973 43.28511313 9.03881836 43.28125 C5.34335515 43.27158044 1.64845708 43.24054523 -2.046875 43.20898438 C-22.40593257 43.11768429 -39.5701637 44.6862654 -56.13085938 57.52148438 Z M-123.13085938 128.52148438 C-123.18915516 177.36327781 -123.18915516 177.36327781 -123.22851562 226.20507812 C-123.23243097 232.79996755 -123.23647182 239.39485688 -123.24072266 245.98974609 C-123.24125015 246.8162311 -123.24177765 247.64271611 -123.24232113 248.49424613 C-123.25100376 261.81188586 -123.26676253 275.12950821 -123.28516497 288.44713765 C-123.30391263 302.12940398 -123.31498636 315.81166124 -123.31903636 329.49393988 C-123.32177135 337.92673402 -123.33038837 346.35947902 -123.34669231 354.79225802 C-123.35731936 360.58634223 -123.36044715 366.38040128 -123.35786213 372.1744945 C-123.35658967 375.51011815 -123.35956374 378.8455879 -123.36927032 382.18120766 C-123.44116916 408.17643752 -122.86985638 431.13748904 -104.06835938 451.20898438 C-89.29340206 465.37675166 -71.67642911 469.66492759 -51.70678711 469.68261719 C-50.34917569 469.68725239 -48.99156556 469.69227798 -47.63395691 469.69766235 C-43.95999532 469.71072377 -40.28605195 469.71721942 -36.6120708 469.72167301 C-34.31017044 469.72461485 -32.00827493 469.72872177 -29.70637703 469.73317719 C-22.48542221 469.74683777 -15.26447864 469.75651055 -8.04351181 469.76037908 C0.25653418 469.76485162 8.55641481 469.78236808 16.85641056 469.81137967 C23.29493715 469.83309341 29.73341756 469.84308855 36.17198032 469.84442019 C40.00653426 469.84546163 43.84093249 469.8512264 47.67544746 469.86923981 C51.28954151 469.88588843 54.9033656 469.88779602 58.51748466 469.8791008 C60.45182153 469.87798036 62.38615013 469.8915686 64.32043457 469.90585327 C75.68697736 469.85252883 86.97393674 468.27706813 97.11914062 462.89648438 C97.78679443 462.55166016 98.45444824 462.20683594 99.14233398 461.8515625 C105.20767062 458.58465327 110.11052831 454.50122179 114.86914062 449.52148438 C115.50078125 448.90917969 116.13242187 448.296875 116.78320312 447.66601562 C130.941928 433.03949147 133.0432806 413.02833707 132.98939514 393.68269348 C132.99024957 392.5421508 132.99110399 391.40160813 132.99198431 390.22650355 C132.99362184 386.43264292 132.98814617 382.63882722 132.98266602 378.8449707 C132.9818256 376.11431857 132.9824987 373.38366728 132.98310852 370.65301514 C132.98363104 364.7883998 132.98051273 358.92379565 132.97487068 353.05918312 C132.96671872 344.58010057 132.96413668 336.1010234 132.96288269 327.62193736 C132.96069797 313.86278265 132.95405362 300.1036339 132.94458008 286.34448242 C132.93539095 272.98445668 132.92832894 259.62443256 132.92407227 246.2644043 C132.92380427 245.43150393 132.92353627 244.59860356 132.92326015 243.74046379 C132.92118054 237.22593867 132.91922368 230.7114135 132.91730559 224.19688833 C132.90788419 192.30508155 132.88776297 160.41328968 132.86914062 128.52148438 C48.38914062 128.52148438 -36.09085938 128.52148438 -123.13085938 128.52148438 Z " fill="#FFFFFF" stroke="currentColor" transform="translate(251.130859375,-0.521484375)"/>
<path d="M0 0 C5.52013044 3.08039076 8.60528998 6.87836995 10.625 12.9375 C10.72842074 14.8324589 10.77300261 16.73083357 10.78562927 18.62857056 C10.7956749 19.81449799 10.80572052 21.00042542 10.81607056 22.22229004 C10.82190155 23.52516968 10.82773254 24.82804932 10.83374023 26.17041016 C10.84328034 27.55524939 10.85317157 28.94008624 10.86338806 30.32492065 C10.89476176 34.87543921 10.91504185 39.42597595 10.93359375 43.9765625 C10.93853973 45.1388957 10.93853973 45.1388957 10.94358563 46.32471037 C10.97437126 53.63681929 11.00107135 60.94893241 11.01800442 68.26108742 C11.03989451 77.60342754 11.08183046 86.94519174 11.15144199 96.28730166 C11.19875896 102.86154276 11.22294836 109.43562892 11.2302013 116.01003492 C11.23514693 119.93356975 11.25012184 123.85645534 11.2899456 127.77980423 C11.32696154 131.47529317 11.33517382 135.16976616 11.32193947 138.86540604 C11.32201865 140.8568863 11.35177406 142.84829735 11.38262939 144.83953857 C11.31873313 152.76858426 10.11201774 158.03498724 4.625 163.9375 C-1.97403628 169.62685763 -9.03302621 169.50323188 -17.375 168.9375 C-23.4974776 166.86023082 -27.06565585 162.99763048 -30.49108887 157.60803223 C-33.31362568 151.76841058 -32.93352502 145.76044094 -32.89257812 139.39648438 C-32.89800664 138.03883618 -32.90513338 136.68119389 -32.91381836 135.32356262 C-32.93196841 131.65611231 -32.92501907 127.98911486 -32.91230202 124.32165718 C-32.9021309 120.47236084 -32.91157906 116.62310167 -32.91784668 112.77380371 C-32.92511118 106.31120894 -32.91556699 99.84879738 -32.89648438 93.38623047 C-32.8747178 85.92888057 -32.88177003 78.4719682 -32.90379 71.01462889 C-32.9219783 64.59652335 -32.92448563 58.17854905 -32.91403532 51.76042604 C-32.90781915 47.93389502 -32.90691268 44.10756924 -32.92018127 40.28105164 C-32.9317894 36.68243249 -32.9236248 33.08437402 -32.90060425 29.48581505 C-32.89284632 27.54558952 -32.90463064 25.60531623 -32.91711426 23.66511536 C-32.84032339 15.70639289 -31.98006153 10.11517756 -26.62890625 3.9140625 C-26.07074219 3.46804687 -25.51257813 3.02203125 -24.9375 2.5625 C-24.38191406 2.10101563 -23.82632812 1.63953125 -23.25390625 1.1640625 C-16.04505584 -3.54192301 -7.71848698 -3.50735432 0 0 Z " fill="#FFFFFF" transform="translate(309.375,215.0625)"/>
<path d="M0 0 C5.78537741 3.35005427 9.53697262 8.15894853 11.6875 14.4375 C11.94756222 17.19562054 11.94756222 17.19562054 11.96165466 20.24845886 C11.97661736 21.99144257 11.97661736 21.99144257 11.99188232 23.76963806 C11.992547 25.03570389 11.99321167 26.30176971 11.99389648 27.60620117 C12.0015226 28.96015884 12.00995087 30.3141122 12.01911926 31.6680603 C12.04103131 35.33981459 12.04985912 39.0114856 12.05494571 42.68329787 C12.05859429 44.98080853 12.06483706 47.27829755 12.0719471 49.57579994 C12.09643369 57.60140562 12.10949102 65.62694678 12.11303711 73.65258789 C12.11666803 81.11611384 12.14653329 88.57922747 12.18844169 96.04262751 C12.22322165 102.46322786 12.2385869 108.88369212 12.23928314 115.30438596 C12.24007358 119.13336073 12.24870317 122.9619156 12.27728081 126.79079247 C12.30359322 130.3967952 12.3055946 134.00203394 12.28962517 137.60808945 C12.2869664 139.54801516 12.30890624 141.48792688 12.33181763 143.42771912 C12.26824457 151.08546896 11.20487246 157.10206619 6.6875 163.4375 C0.68288694 169.14019211 -5.04148901 169.80449291 -13.015625 169.70703125 C-18.63359236 169.24774245 -22.27794574 167.65498567 -26.09375 163.49609375 C-29.93390438 158.57816019 -31.43472693 155.06652813 -31.45294189 148.76420593 C-31.45865204 147.58235718 -31.46436218 146.40050842 -31.47024536 145.18284607 C-31.47136322 143.88460403 -31.47248108 142.586362 -31.47363281 141.2487793 C-31.47826172 139.86892565 -31.48328647 138.48907329 -31.48867798 137.10922241 C-31.50179735 133.35911728 -31.50824607 129.60903005 -31.51268864 125.85890555 C-31.51562021 123.51554673 -31.51972519 121.1721928 -31.52419281 118.82883644 C-31.53786675 111.49575787 -31.54753381 104.16269047 -31.5513947 96.82960004 C-31.55587485 88.36699395 -31.57342108 79.90454942 -31.6023953 71.44199246 C-31.62401828 64.89921383 -31.63409932 58.35648063 -31.63543582 51.81366664 C-31.63648344 47.90665114 -31.64238201 43.99978754 -31.66025543 40.09280968 C-31.67674679 36.41641559 -31.67888659 32.7402874 -31.67011642 29.06386948 C-31.66898021 27.07547319 -31.6826895 25.08708568 -31.6968689 23.09873962 C-31.69129974 21.9084314 -31.68573059 20.71812317 -31.67999268 19.491745 C-31.68145924 18.46138972 -31.6829258 17.43103445 -31.6844368 16.36945629 C-30.92190601 10.35847014 -27.85164732 6.27055774 -23.3125 2.4375 C-16.29549954 -2.46960511 -7.9302882 -3.50267031 0 0 Z " fill="#FFFFFF" transform="translate(223.3125,214.5625)"/>
</svg>
